<?xml version="1.0" encoding="utf-8"?><svg xmlns="http://www.w3.org/2000/svg" xmlns:xlink="http://www.w3.org/1999/xlink"><symbol viewBox="0 0 309.156 309.156" id="arrow-down"><path d="M288.461 64.929L154.589 202.766 20.723 64.94 0 85.07l154.589 159.158L309.156 85.07z"/></symbol><symbol viewBox="0 0 349.629 349.629" id="arrow-up"><path d="M174.827 73.433L0 253.42l23.434 22.77 151.393-155.872 151.389 155.878 23.413-22.776z"/></symbol><symbol viewBox="0 0 31.49 31.49" id="bread-icon"><path d="M21.205 5.007a1.112 1.112 0 0 0-1.587 0 1.12 1.12 0 0 0 0 1.571l8.047 8.047H1.111A1.106 1.106 0 0 0 0 15.737c0 .619.492 1.127 1.111 1.127h26.554l-8.047 8.032c-.429.444-.429 1.159 0 1.587a1.112 1.112 0 0 0 1.587 0l9.952-9.952a1.093 1.093 0 0 0 0-1.571l-9.952-9.953z"/></symbol><symbol viewBox="-113 115.5 31.5 31.5" id="bread-left"><path d="M-102.7 142c.4.4 1.1.4 1.6 0 .4-.4.4-1.1 0-1.6l-8-8h26.6c.6 0 1.1-.5 1.1-1.1s-.5-1.1-1.1-1.1h-26.6l8-8c.4-.4.4-1.2 0-1.6-.4-.4-1.2-.4-1.6 0l-10 10c-.4.4-.4 1.1 0 1.6l10 9.8z"/></symbol><symbol viewBox="0 0 400 400" id="btn-link"><path d="M199.995 0C89.716 0 0 89.72 0 200c0 110.279 89.716 200 199.995 200C310.277 400 400 310.279 400 200 400 89.72 310.277 0 199.995 0zm0 373.77C104.182 373.77 26.23 295.816 26.23 200c0-95.817 77.951-173.77 173.765-173.77 95.817 0 173.772 77.953 173.772 173.77.002 95.816-77.955 173.77-173.772 173.77z"/><path d="M279.478 186.884h-66.363V120.52c0-7.243-5.872-13.115-13.115-13.115s-13.115 5.873-13.115 13.115v66.368h-66.361c-7.242 0-13.115 5.873-13.115 13.115 0 7.243 5.873 13.115 13.115 13.115h66.358v66.362c0 7.242 5.872 13.114 13.115 13.114 7.242 0 13.115-5.872 13.115-13.114v-66.365h66.367c7.241 0 13.114-5.873 13.114-13.115 0-7.243-5.873-13.116-13.115-13.116z"/></symbol><symbol viewBox="0 0 124.099 124.1" id="contacts-email"><path d="M18.25 106.7c5.6 5.399 12.3 9.8 20.1 12.8 7.8 3 16.5 4.6 25.9 4.6 10.5 0 20.2-1.6 28.9-4.899 7.9-2.9 1.1-17.601-4.7-15.2-6.399 2.7-14.2 4.1-23.101 4.1-7 0-13.399-1.1-19-3.199-5.6-2.101-10.5-5.101-14.5-9-4-3.9-7.2-8.7-9.4-14.2-2.3-5.601-3.4-12-3.4-19 0-6.6 1.1-12.9 3.3-18.5 2.2-5.6 5.2-10.6 9.2-14.6 3.9-4.1 8.7-7.4 14.2-9.7 5.5-2.3 11.7-3.5 18.5-3.5 6.301 0 12.1.9 17.301 2.5 5.1 1.6 9.5 4.1 13.199 7.4 3.7 3.3 6.6 7.3 8.7 12.1 2.101 4.8 3.101 10.4 3.101 16.8 0 3.7-.4 7.2-1.201 10.5-.799 3.1-1.799 5.899-3.199 8.1-1.301 2.101-2.801 3.8-4.6 5-2.101 1.4-5.201 2.2-7.601 1.4-3-1-2.399-5.2-2.2-7.7.301-3.4 1.2-6.6 1.9-9.9 1.1-5.4 2.3-10.7 3.4-16 .6-2.9 1.299-5.9 1.899-8.8.8-3.7-2-7.3-5.899-7.3h-4.4c-2.7 0-5.1 1.8-5.801 4.4-.299 1.2-.6 2.2-.6 2.2-2.199-6.8-10.3-8.7-16.7-8.6-8.4.1-16.1 4.4-21.7 10.5-.5.6-1.1 1.2-1.6 1.8-2.9 3.5-5.1 7.6-6.6 11.9-1.6 4.6-2.4 9.3-2.4 14.1 0 4.101.6 8 1.7 11.5 1.2 3.601 2.9 6.7 5.1 9.3 2.2 2.601 5 4.7 8.3 6.2 3.3 1.5 7 2.3 11 2.3 3 0 5.8-.5 8.3-1.399 2.4-.9 4.6-2 6.5-3.3 1.5-1 2.9-2.2 4-3.301.699 1.301 1.5 2.4 2.6 3.5 2.801 3 7.1 4.5 12.801 4.5 4.5 0 8.899-.899 13-2.699 4.1-1.801 7.799-4.601 10.899-8.2 3-3.601 5.5-8 7.3-13.2 1.801-5.2 2.7-11.2 2.7-17.8 0-9-1.7-17-5-23.7s-7.8-12.4-13.399-16.9c-5.5-4.5-11.9-7.8-19-10.1C79.05 1.1 71.75 0 64.25 0c-8.7 0-17 1.6-24.7 4.7-7.7 3.2-14.5 7.6-20.2 13.1-5.8 5.5-10.4 12.2-13.7 19.7-3.3 7.5-5 15.9-5 24.7 0 8.899 1.5 17.3 4.6 24.8 3 7.6 7.4 14.2 13 19.7zm54.099-42c-.699 2.7-1.699 5.3-3.1 7.7-1.4 2.3-3.1 4.199-5.3 5.699-2 1.4-4.4 2.101-7.4 2.101-1.9 0-3.4-.4-4.5-1.101-1.2-.8-2.2-1.8-2.9-3.1-.8-1.4-1.3-2.9-1.6-4.4-.3-1.6-.5-3.1-.5-4.399 0-2.8.4-5.6 1.2-8.5.8-2.8 1.9-5.4 3.4-7.6 1.5-2.2 3.2-4 5.3-5.4 1.9-1.3 4-1.9 6.5-1.9 2 0 3.601.3 4.8 1 1.2.7 2.2 1.6 2.9 2.7.8 1.2 1.3 2.6 1.699 4.1.4 1.7.601 3.5.601 5.2-.1 2.5-.399 5.1-1.1 7.9z"/></symbol><symbol viewBox="0 0 368.666 368.666" id="contacts-location"><path d="M184.333 0C102.01 0 35.036 66.974 35.036 149.297c0 33.969 11.132 65.96 32.193 92.515 27.27 34.383 106.572 116.021 109.934 119.479l7.169 7.375 7.17-7.374c3.364-3.46 82.69-85.116 109.964-119.51 21.042-26.534 32.164-58.514 32.164-92.485C333.63 66.974 266.656 0 184.333 0zm101.462 229.355c-21.956 27.687-80.92 89.278-101.462 110.581-20.54-21.302-79.483-82.875-101.434-110.552-18.228-22.984-27.863-50.677-27.863-80.087C55.036 78.002 113.038 20 184.333 20c71.294 0 129.297 58.002 129.296 129.297 0 29.412-9.625 57.096-27.834 80.058z"/><path d="M184.333 59.265c-48.73 0-88.374 39.644-88.374 88.374s39.645 88.374 88.374 88.374 88.374-39.645 88.374-88.374-39.644-88.374-88.374-88.374zm0 156.748c-37.702 0-68.374-30.673-68.374-68.374 0-37.702 30.673-68.374 68.374-68.374s68.373 30.673 68.374 68.374c0 37.702-30.672 68.374-68.374 68.374z"/></symbol><symbol viewBox="0 0 348.077 348.077" id="contacts-phone"><path d="M340.273 275.083l-53.755-53.761c-10.707-10.664-28.438-10.34-39.518.744l-27.082 27.076a792.327 792.327 0 0 1-5.344-2.973c-17.102-9.476-40.509-22.464-65.14-47.113-24.704-24.701-37.704-48.144-47.209-65.257-1.003-1.813-1.964-3.561-2.913-5.221l18.176-18.149 8.936-8.947c11.097-11.1 11.403-28.826.721-39.521L73.39 8.194c-10.682-10.68-28.421-10.356-39.518.744l-15.15 15.237.414.411c-5.08 6.482-9.325 13.958-12.484 22.02C3.74 54.28 1.927 61.603 1.098 68.941-6 127.785 20.89 181.564 93.866 254.541c100.875 100.868 182.167 93.248 185.674 92.876 7.638-.913 14.958-2.738 22.397-5.627 7.992-3.122 15.463-7.361 21.941-12.43l.331.294 15.348-15.029c11.074-11.098 11.393-28.83.716-39.542z"/></symbol><symbol viewBox="0 0 139.4 44.7" id="dorohovdesign"><path d="M52.2 19.5V8.1H57c3.6 0 6.1 2.1 6.1 5.7 0 3.5-2.6 5.7-6.1 5.7h-4.8zm7.9-5.7c0-1.8-1.1-3.1-3.1-3.1h-1.9v6.2H57c2 0 3.1-1.4 3.1-3.1m4.1 0c0-3.4 2.6-5.9 6.1-5.9 3.5 0 6.1 2.4 6.1 5.9 0 3.5-2.6 5.9-6.1 5.9-3.5 0-6.1-2.4-6.1-5.9m9.2 0c0-1.9-1.2-3.3-3.1-3.3-1.9 0-3.1 1.4-3.1 3.3 0 1.8 1.2 3.3 3.1 3.3 1.9 0 3.1-1.4 3.1-3.3m11 5.7l-1.9-3.8H81v3.8h-2.9V8.1h5.7c2.5 0 3.9 1.7 3.9 3.8 0 2-1.2 3-2.3 3.4l2.3 4.2h-3.3zm.3-7.6c0-.8-.6-1.2-1.4-1.2H81v2.4h2.3c.8 0 1.4-.4 1.4-1.2m4.2 1.9c0-3.4 2.6-5.9 6.1-5.9 3.5 0 6.1 2.4 6.1 5.9 0 3.5-2.6 5.9-6.1 5.9-3.5 0-6.1-2.4-6.1-5.9m9.1 0c0-1.9-1.2-3.3-3.1-3.3-1.9 0-3.1 1.4-3.1 3.3 0 1.8 1.2 3.3 3.1 3.3 1.9 0 3.1-1.4 3.1-3.3m12.4 5.7v-4.6h-4.7v4.6h-3V8.1h3v4.3h4.7V8.1h2.9v11.4zm4.6-5.7c0-3.4 2.6-5.9 6.1-5.9 3.5 0 6.1 2.4 6.1 5.9 0 3.5-2.6 5.9-6.1 5.9-3.5 0-6.1-2.4-6.1-5.9m9.2 0c0-1.9-1.2-3.3-3.1-3.3-1.9 0-3.1 1.4-3.1 3.3 0 1.8 1.2 3.3 3.1 3.3 1.9 0 3.1-1.4 3.1-3.3m7.3 5.7l-4.3-11.4h3.3l2.8 8.2 2.8-8.2h3.3l-4.2 11.4zm-79.3 17V25.1H57c3.6 0 6.1 2.1 6.1 5.7 0 3.5-2.6 5.7-6.1 5.7h-4.8zm7.9-5.7c0-1.8-1.1-3.1-3.1-3.1h-1.9v6.2H57c2 0 3.1-1.4 3.1-3.1m4.7 5.7V25.1h8.3v2.6h-5.3v1.8H73V32h-5.2v1.9h5.3v2.6zm9.6-1.6l1.5-2.2c.8.8 2.1 1.5 3.6 1.5 1 0 1.6-.4 1.6-.9 0-1.5-6.4-.3-6.4-4.7 0-1.9 1.6-3.6 4.5-3.6 1.8 0 3.4.5 4.6 1.6l-1.6 2.1c-1-.8-2.2-1.2-3.3-1.2-.8 0-1.2.3-1.2.8 0 1.4 6.4.4 6.4 4.6 0 2.3-1.7 3.8-4.7 3.8-2.2 0-3.8-.7-5-1.8m11.5-9.8h2.9v11.3h-2.9zm4.7 5.7c0-3.6 2.8-5.9 6.1-5.9 2.5 0 4.1 1.3 4.8 2.8L99.1 29c-.4-.7-1.3-1.4-2.4-1.4-1.9 0-3.2 1.4-3.2 3.3s1.3 3.3 3.2 3.3c.8 0 1.7-.3 2.1-.7v-.9h-2.6V30h5.5v4.5c-1.2 1.3-2.9 2.2-5 2.2-3.4 0-6.1-2.3-6.1-5.9m20.9 5.7l-4.8-6.6v6.6h-2.9V25.1h3l4.6 6.3v-6.3h2.9v11.4zM17.7 0H0v44.7h17.8c15 0 24.6-8.8 24.6-22.4C42.4 8.7 32.7 0 17.7 0m-.4 35.7h-8V9.5h8c9.3 0 15.7 3.7 15.7 12.7.1 7.5-5.8 13.5-15.7 13.5"/><path d="M19.1 17H17v10.6h2c4 0 6.4-2.4 6.4-5.4 0-3.7-2.6-5.2-6.3-5.2"/></symbol><symbol viewBox="0 0 124.099 124.1" id="email"><path d="M18.25 106.7c5.6 5.399 12.3 9.8 20.1 12.8 7.8 3 16.5 4.6 25.9 4.6 10.5 0 20.2-1.6 28.9-4.899 7.9-2.9 1.1-17.601-4.7-15.2-6.399 2.7-14.2 4.1-23.101 4.1-7 0-13.399-1.1-19-3.199-5.6-2.101-10.5-5.101-14.5-9-4-3.9-7.2-8.7-9.4-14.2-2.3-5.601-3.4-12-3.4-19 0-6.6 1.1-12.9 3.3-18.5 2.2-5.6 5.2-10.6 9.2-14.6 3.9-4.1 8.7-7.4 14.2-9.7 5.5-2.3 11.7-3.5 18.5-3.5 6.301 0 12.1.9 17.301 2.5 5.1 1.6 9.5 4.1 13.199 7.4 3.7 3.3 6.6 7.3 8.7 12.1 2.101 4.8 3.101 10.4 3.101 16.8 0 3.7-.4 7.2-1.201 10.5-.799 3.1-1.799 5.899-3.199 8.1-1.301 2.101-2.801 3.8-4.6 5-2.101 1.4-5.201 2.2-7.601 1.4-3-1-2.399-5.2-2.2-7.7.301-3.4 1.2-6.6 1.9-9.9 1.1-5.4 2.3-10.7 3.4-16 .6-2.9 1.299-5.9 1.899-8.8.8-3.7-2-7.3-5.899-7.3h-4.4c-2.7 0-5.1 1.8-5.801 4.4-.299 1.2-.6 2.2-.6 2.2-2.199-6.8-10.3-8.7-16.7-8.6-8.4.1-16.1 4.4-21.7 10.5-.5.6-1.1 1.2-1.6 1.8-2.9 3.5-5.1 7.6-6.6 11.9-1.6 4.6-2.4 9.3-2.4 14.1 0 4.101.6 8 1.7 11.5 1.2 3.601 2.9 6.7 5.1 9.3 2.2 2.601 5 4.7 8.3 6.2 3.3 1.5 7 2.3 11 2.3 3 0 5.8-.5 8.3-1.399 2.4-.9 4.6-2 6.5-3.3 1.5-1 2.9-2.2 4-3.301.699 1.301 1.5 2.4 2.6 3.5 2.801 3 7.1 4.5 12.801 4.5 4.5 0 8.899-.899 13-2.699 4.1-1.801 7.799-4.601 10.899-8.2 3-3.601 5.5-8 7.3-13.2 1.801-5.2 2.7-11.2 2.7-17.8 0-9-1.7-17-5-23.7s-7.8-12.4-13.399-16.9c-5.5-4.5-11.9-7.8-19-10.1C79.05 1.1 71.75 0 64.25 0c-8.7 0-17 1.6-24.7 4.7-7.7 3.2-14.5 7.6-20.2 13.1-5.8 5.5-10.4 12.2-13.7 19.7-3.3 7.5-5 15.9-5 24.7 0 8.899 1.5 17.3 4.6 24.8 3 7.6 7.4 14.2 13 19.7zm54.099-42c-.699 2.7-1.699 5.3-3.1 7.7-1.4 2.3-3.1 4.199-5.3 5.699-2 1.4-4.4 2.101-7.4 2.101-1.9 0-3.4-.4-4.5-1.101-1.2-.8-2.2-1.8-2.9-3.1-.8-1.4-1.3-2.9-1.6-4.4-.3-1.6-.5-3.1-.5-4.399 0-2.8.4-5.6 1.2-8.5.8-2.8 1.9-5.4 3.4-7.6 1.5-2.2 3.2-4 5.3-5.4 1.9-1.3 4-1.9 6.5-1.9 2 0 3.601.3 4.8 1 1.2.7 2.2 1.6 2.9 2.7.8 1.2 1.3 2.6 1.699 4.1.4 1.7.601 3.5.601 5.2-.1 2.5-.399 5.1-1.1 7.9z"/></symbol><symbol viewBox="0 0 96.124 96.123" id="fb"><path d="M72.089.02L59.624 0C45.62 0 36.57 9.285 36.57 23.656v10.907H24.037a1.96 1.96 0 0 0-1.96 1.961v15.803a1.96 1.96 0 0 0 1.96 1.96H36.57v39.876a1.96 1.96 0 0 0 1.96 1.96h16.352a1.96 1.96 0 0 0 1.96-1.96V54.287h14.654a1.96 1.96 0 0 0 1.96-1.96l.006-15.803a1.963 1.963 0 0 0-1.961-1.961H56.842v-9.246c0-4.444 1.059-6.7 6.848-6.7l8.397-.003a1.96 1.96 0 0 0 1.959-1.96V1.98A1.96 1.96 0 0 0 72.089.02z"/></symbol><symbol viewBox="174.5 -145.8 512 512" id="form-email"><path d="M477.9 132.5l72.4 72.4c-4.2 3.7-9.2 5.6-14.9 5.6H325.6c-5.7 0-10.7-1.9-14.9-5.6l72.4-72.4c1.8 1.3 3.5 2.5 5 3.6 5.4 4 9.8 7.1 13.2 9.3 3.4 2.2 7.9 4.5 13.5 6.8s10.8 3.5 15.7 3.5h.2c4.8 0 10.1-1.2 15.7-3.5s10.1-4.6 13.5-6.8c3.4-2.2 7.8-5.3 13.2-9.3 1.4-1.1 3.1-2.3 4.8-3.6zM317.2 87c-5.4-3.6-10.2-7.7-14.4-12.4v110.1l63.8-63.8c-12.8-8.9-29.3-20.2-49.4-33.9zm226.7 0c-19.4 13.1-35.9 24.4-49.5 33.9l63.7 63.8V74.6c-4 4.5-8.8 8.7-14.2 12.4zM327.3 71.7c3.2 2.3 13 9.1 29.2 20.3 8.8 6.1 16.4 11.4 23 15.9 5.6 3.9 10.4 7.3 14.4 10.1.5.3 1.2.8 2.1 1.5 1 .7 2.3 1.7 3.9 2.8 3.1 2.2 5.7 4 7.7 5.4 2 1.4 4.5 2.9 7.4 4.6 2.9 1.7 5.6 3 8.2 3.8 2.6.9 4.9 1.3 7.1 1.3h.2c2.2 0 4.6-.4 7.1-1.3 2.6-.9 5.3-2.1 8.2-3.8 2.9-1.7 5.4-3.3 7.4-4.6 2-1.4 4.6-3.2 7.7-5.4 1.6-1.2 2.9-2.1 3.9-2.8 1-.7 1.7-1.2 2.1-1.5 3.1-2.2 7.9-5.5 14.4-10 11.8-8.2 29.2-20.3 52.3-36.3 6.9-4.8 12.7-10.7 17.4-17.5 4.6-6.8 7-14 7-21.5 0-6.3-2.3-11.6-6.8-16.1-4.5-4.5-9.9-6.7-16-6.7H325.6c-7.3 0-12.9 2.5-16.9 7.4-3.9 4.9-5.9 11.1-5.9 18.5 0 6 2.6 12.5 7.8 19.5 5.2 6.9 10.8 12.4 16.7 16.4zm103.2-217.5c-141.4 0-256 114.6-256 256s114.6 256 256 256 256-114.6 256-256-114.7-256-256-256zm0 480c-123.5 0-224-100.5-224-224s100.5-224 224-224 224 100.5 224 224-100.5 224-224 224z"/></symbol><symbol viewBox="0 0 60 60" id="form-file"><path d="M45 25H20a1 1 0 1 0 0 2h25a1 1 0 1 0 0-2zm-25-6h10a1 1 0 1 0 0-2H20a1 1 0 1 0 0 2zm25 14H20a1 1 0 1 0 0 2h25a1 1 0 1 0 0-2zm0 8H20a1 1 0 1 0 0 2h25a1 1 0 1 0 0-2zm0 8H20a1 1 0 1 0 0 2h25a1 1 0 1 0 0-2z"/><path d="M49 14.586V0H6v55h5v5h43V19.586l-5-5zm-9-6.172l9 9L50.586 19H40V8.414zM8 53V2h39v10.586L39.414 5H11v48H8zm5 5V7h25v14h14v37H13z"/></symbol><symbol viewBox="0 0 55 55" id="form-fio"><path d="M55 27.5C55 12.337 42.663 0 27.5 0S0 12.337 0 27.5c0 8.009 3.444 15.228 8.926 20.258l-.026.023.892.752c.058.049.121.089.179.137.474.393.965.766 1.465 1.127.162.117.324.234.489.348.534.368 1.082.717 1.642 1.048.122.072.245.142.368.212a27.44 27.44 0 0 0 1.88.98l.142.064a27.252 27.252 0 0 0 6.651 2.105l.184.033c.724.125 1.456.225 2.197.292.09.008.18.013.271.021.738.061 1.484.1 2.24.1.749 0 1.488-.039 2.222-.098l.279-.021a27.808 27.808 0 0 0 2.178-.287l.187-.034a27.251 27.251 0 0 0 6.557-2.055c.076-.035.153-.068.229-.104a27.639 27.639 0 0 0 2.25-1.189 27.514 27.514 0 0 0 1.581-1c.185-.126.366-.259.549-.391.439-.316.87-.642 1.289-.983.093-.075.193-.14.284-.217l.915-.764-.027-.023C51.523 42.802 55 35.55 55 27.5zm-53 0C2 13.439 13.439 2 27.5 2S53 13.439 53 27.5c0 7.577-3.325 14.389-8.589 19.063a7.494 7.494 0 0 0-.893-.537l-8.467-4.233a2.217 2.217 0 0 1-1.232-1.993v-2.957c.196-.242.403-.516.617-.817a20.378 20.378 0 0 0 2.616-5.123 3.63 3.63 0 0 0 2.085-3.289v-3.545c0-.867-.318-1.708-.887-2.369v-4.667c.052-.52.236-3.448-1.883-5.864C34.524 9.065 31.541 8 27.5 8s-7.024 1.065-8.867 3.168c-2.119 2.416-1.935 5.346-1.883 5.864v4.667a3.644 3.644 0 0 0-.887 2.369v3.545c0 1.101.494 2.128 1.34 2.821.81 3.173 2.477 5.575 3.093 6.389v2.894a2.23 2.23 0 0 1-1.162 1.958l-7.907 4.313a7.227 7.227 0 0 0-.752.476C5.276 41.792 2 35.022 2 27.5z"/></symbol><symbol viewBox="0 0 477.6 477.6" id="form-note"><path d="M407.583 70c-45.1-45.1-105-70-168.8-70s-123.7 24.9-168.8 70c-87 87-93.3 226-15.8 320.2-10.7 21.9-23.3 36.5-37.6 43.5-8.7 4.3-13.6 13.7-12.2 23.3 1.5 9.7 8.9 17.2 18.6 18.7 5.3.8 11 1.3 16.9 1.3 29.3 0 60.1-10.1 85.8-27.8 34.6 18.6 73.5 28.4 113.1 28.4 63.8 0 123.7-24.8 168.8-69.9s69.9-105.1 69.9-168.8-24.8-123.8-69.9-168.9zm-19.1 318.5c-40 40-93.2 62-149.7 62-37.8 0-74.9-10.1-107.2-29.1-2.1-1.2-4.5-1.9-6.8-1.9-2.9 0-5.9 1-8.3 2.8-30.6 23.7-61.4 27.2-74.9 27.5 16.1-12 29.6-30.6 40.9-56.5 2.1-4.8 1.2-10.4-2.3-14.4-74-83.6-70.1-211 8.9-290 40-40 93.2-62 149.7-62s109.7 22 149.7 62c82.6 82.7 82.6 217.1 0 299.6z"/><path d="M338.783 160h-200c-7.5 0-13.5 6-13.5 13.5s6 13.5 13.5 13.5h200c7.5 0 13.5-6 13.5-13.5s-6.1-13.5-13.5-13.5zm0 65.3h-200c-7.5 0-13.5 6-13.5 13.5s6 13.5 13.5 13.5h200c7.5 0 13.5-6 13.5-13.5s-6.1-13.5-13.5-13.5zm0 65.3h-200c-7.5 0-13.5 6-13.5 13.5s6 13.5 13.5 13.5h200c7.5 0 13.5-6 13.5-13.5s-6.1-13.5-13.5-13.5z"/></symbol><symbol viewBox="0 0 512 512" id="form-tel"><path d="M256 32c123.5 0 224 100.5 224 224S379.5 480 256 480 32 379.5 32 256 132.5 32 256 32m0-32C114.625 0 0 114.625 0 256s114.625 256 256 256 256-114.625 256-256S397.375 0 256 0zm142.719 341.594l-1.438-4.375c-3.375-10.062-14.5-20.562-24.75-23.375L334.688 303.5c-10.25-2.781-24.875.969-32.405 8.5l-13.688 13.688c-49.75-13.469-88.781-52.5-102.219-102.25l13.688-13.688c7.5-7.5 11.25-22.125 8.469-32.406L198.219 139.5c-2.781-10.25-13.344-21.375-23.406-24.75l-4.313-1.438c-10.094-3.375-24.5.031-32 7.563l-20.5 20.5c-3.656 3.625-6 14.031-6 14.063-.688 65.063 24.813 127.719 70.813 173.75 45.875 45.875 108.313 71.345 173.156 70.781.344 0 11.063-2.281 14.719-5.938l20.5-20.5c7.5-7.469 10.874-21.875 7.531-31.937z"/></symbol><symbol viewBox="111 -111.9 482.9 482.9" id="icon-cabinet"><path d="M356.2 134.1h1.8c16.3-.3 29.6-6 39.3-17 21.5-24.2 17.9-65.7 17.5-69.6-1.4-29.7-15.4-43.9-27-50.6-8.6-5-18.7-7.6-30-7.9h-.9c-6.2 0-18.3 1-30 7.6s-26 20.9-27.4 50.8c-.4 4-4 45.4 17.5 69.6 9.6 11.1 22.8 16.8 39.2 17.1zm-41.9-85.2c0-.2.1-.3.1-.4 1.8-40 30.2-44.3 42.4-44.3h.6c15.1.3 40.7 6.5 42.4 44.3 0 .2 0 .3.1.4.1.4 4 38.3-13.8 58.3-7 7.9-16.4 11.8-28.7 11.9h-.6c-12.3-.1-21.7-4-28.7-11.9-17.6-19.9-13.8-58-13.8-58.3zm157.4 154v-.2c0-.4-.1-.9-.1-1.4-.3-11-1.1-36.9-25.3-45.1-.2-.1-.4-.1-.6-.2-25.1-6.4-46.1-20.9-46.3-21.1-3.4-2.4-8.1-1.6-10.5 1.8-2.4 3.4-1.6 8.1 1.8 10.5.9.7 23.1 16.1 50.9 23.3 13 4.6 14.4 18.5 14.8 31.2 0 .5 0 .9.1 1.4.1 5-.3 12.8-1.2 17.2-9 5.1-44.4 22.9-98.3 22.9-53.6 0-89.3-17.8-98.4-22.9-.9-4.5-1.3-12.2-1.2-17.2 0-.4.1-.9.1-1.4.4-12.7 1.8-26.6 14.8-31.2 27.8-7.1 50-22.6 50.9-23.3 3.4-2.4 4.2-7.1 1.8-10.5-2.4-3.4-7.1-4.2-10.5-1.8-.2.2-21 14.7-46.3 21.1-.2.1-.4.1-.6.2-24.2 8.3-24.9 34.1-25.3 45.1 0 .5 0 .9-.1 1.4v.2c-.1 2.9-.1 17.8 2.8 25.3.6 1.4 1.6 2.7 2.9 3.5 1.7 1.1 41.8 26.7 108.8 26.7s107.2-25.6 108.8-26.7c1.3-.8 2.3-2.1 2.9-3.5 3.4-7.5 3.3-22.4 3.3-25.3zM352.5 371c-32.6 0-64.2-6.4-94-19-28.8-12.2-54.6-29.6-76.7-51.7-22.2-22.2-39.6-48-51.7-76.7-12.6-29.8-19-61.4-19-94s6.4-64.2 19-94c12.2-28.8 29.6-54.6 51.7-76.7s48-39.6 76.7-51.7c29.8-12.6 61.4-19 94-19s64.2 6.4 94 19c28.8 12.2 54.6 29.6 76.7 51.7 22.2 22.2 39.6 48 51.7 76.7 12.6 29.8 19 61.4 19 94s-6.4 64.2-19 94c-12.2 28.8-29.6 54.6-51.7 76.7-22.2 22.2-48 39.6-76.7 51.7-29.8 12.6-61.5 19-94 19zm0-466.2c-123.9 0-224.7 100.8-224.7 224.7s100.8 224.7 224.7 224.7 224.7-100.8 224.7-224.7S476.4-95.2 352.5-95.2z"/></symbol><symbol viewBox="0 0 512 512" id="icon-download"><path d="M256 0C114.848 0 0 114.848 0 256s114.848 256 256 256 256-114.848 256-256S397.152 0 256 0zm0 480C132.48 480 32 379.52 32 256S132.48 32 256 32s224 100.48 224 224-100.48 224-224 224z"/><path d="M340.688 212.688L272 281.376V96h-32v185.376l-68.688-68.688-22.624 22.624 96 96c3.12 3.12 7.216 4.688 11.312 4.688s8.192-1.568 11.312-4.688l96-96-22.624-22.624zM192 384h128v32H192z"/></symbol><symbol viewBox="0 0 470 470" id="icon-office"><path d="M470 310.715V159.176a7.5 7.5 0 0 0-5.366-7.19l-70.113-20.802c5.427-13.275 8.81-26.451 8.81-38.684 0-51.004-41.495-92.5-92.5-92.5s-92.5 41.495-92.5 92.5c0 12.233 3.383 25.409 8.81 38.684l-67.979 20.169L9.633 106.985A7.5 7.5 0 0 0 0 114.176V417.5a7.5 7.5 0 0 0 5.367 7.19l151.549 44.967.113.033c.024.007.049.009.073.016.279.08.565.141.857.188a7.547 7.547 0 0 0 1.191.105c.348 0 .667-.028.982-.069.078-.01.155-.023.233-.036.292-.047.579-.109.859-.188.024-.007.049-.009.073-.016l.069-.021 146.427-43.445a7.464 7.464 0 0 0 6.078 0l146.496 43.465a7.496 7.496 0 0 0 6.62-1.18 7.503 7.503 0 0 0 3.014-6.01V310.775l-.001-.06zm-15-145.941V300.79l-136.669-40.55v-21.332c9.78-10.071 48.188-50.995 69.876-93.951L455 164.774zM310.831 15c42.733 0 77.5 34.766 77.5 77.5 0 12.181-4.075 25.748-10.412 39.485a7.491 7.491 0 0 0-.765 1.633c-18.072 38.149-53.029 77.25-66.325 91.396-13.288-14.131-48.213-53.178-66.292-91.314a7.5 7.5 0 0 0-.833-1.78c-6.314-13.712-10.373-27.254-10.373-39.421 0-42.733 34.767-77.499 77.5-77.499zm-7.5 223.907v21.332l-136.669 40.55V164.774l66.793-19.817c21.689 42.956 60.096 83.88 69.876 93.95zM15 275.886l51.818 15.375c.712.211 1.43.312 2.136.312a7.502 7.502 0 0 0 2.13-14.692L15 260.24V124.224l136.662 40.55V300.79l-51.817-15.375a7.498 7.498 0 0 0-9.323 5.057 7.498 7.498 0 0 0 5.057 9.323l56.084 16.641v136.016L15 411.902V275.886zm303.331 136.016v-54.297c0-4.142-3.357-7.5-7.5-7.5s-7.5 3.358-7.5 7.5v54.297l-136.669 40.549V316.436l136.669-40.55v51.719c0 4.142 3.357 7.5 7.5 7.5s7.5-3.358 7.5-7.5v-51.719L455 316.436v136.016l-136.669-40.55z"/><path d="M310.831 145c28.948 0 52.5-23.551 52.5-52.5 0-28.948-23.552-52.5-52.5-52.5s-52.5 23.551-52.5 52.5c0 28.948 23.552 52.5 52.5 52.5zm0-90c20.678 0 37.5 16.822 37.5 37.5s-16.822 37.5-37.5 37.5-37.5-16.822-37.5-37.5 16.822-37.5 37.5-37.5z"/></symbol><symbol viewBox="0 0 503.873 503.873" id="icon-office-legal"><path d="M251.937 50.387c-44.698 0-80.457 36.571-80.457 80.457 0 44.698 36.571 80.457 80.457 80.457 44.698 0 80.457-35.759 80.457-80.457s-36.572-80.457-80.457-80.457zm0 144.661c-34.946 0-64.203-28.444-64.203-64.203s29.257-64.203 64.203-64.203 64.203 29.257 64.203 64.203-29.257 64.203-64.203 64.203z"/><path d="M459.987 292.571H295.822c36.571-46.324 85.333-117.029 85.333-161.727 0-71.517-57.702-129.219-129.219-129.219S122.718 59.327 122.718 130.844c0 44.698 48.762 115.403 85.333 161.727H43.886L0 502.248h503.873l-43.886-209.677zM138.971 130.844c0-62.578 50.387-112.965 112.965-112.965s112.965 50.387 112.965 112.965c0 54.451-88.584 161.727-112.965 189.359-24.38-27.632-112.965-134.908-112.965-189.359zm15.442 177.169h66.641c13.816 17.067 23.568 28.444 25.194 29.257l5.689 6.502 5.689-6.502c1.625-1.625 11.378-13.003 25.194-29.257h82.895L379.53 421.79H223.492l2.438-80.457h-75.581l4.064-33.32zm-97.524 0h81.27l-4.063 33.321H49.575l7.314-33.321zM19.505 485.994l26.819-128.406h163.352l-2.438 80.457h174.73l5.689 47.949H19.505zm362.463-177.981h65.016l23.568 113.778h-74.768l-13.816-113.778zm16.254 130.031h75.581l9.752 47.949h-79.644l-5.689-47.949z"/><path d="M243.81 122.717h16.254v16.254H243.81zm32.507 0h16.254v16.254h-16.254zm-65.015 0h16.254v16.254h-16.254z"/></symbol><symbol viewBox="0 0 512 512" id="icon-pay"><path d="M502 254.347h-6v-136c0-21.266-16.683-38.703-37.648-39.925l-10.273-42.435c-3.111-12.847-16.094-20.769-28.938-17.657L170.07 78.627a7.985 7.985 0 0 0-2.07-.28H40c-22.056 0-40 17.944-40 40v336c0 22.056 17.944 40 40 40h416c22.056 0 40-17.944 40-40v-72h6c5.514 0 10-4.486 10-10v-108c0-5.514-4.486-10-10-10zm-22-136v.017a39.86 39.86 0 0 0-13.586-6.638l-3.994-16.5c10.125 2.815 17.58 12.111 17.58 23.121zm-440-24h65.136l-66.731 16.155c-.042.008-.082.021-.123.03l-.165.04c-.021.005-.042.013-.063.019-.23.057-.455.124-.677.2l-.117.043a8.133 8.133 0 0 0-.604.247l-.165.079a7.786 7.786 0 0 0-1.96 1.354 8.636 8.636 0 0 0-.53.547 8.001 8.001 0 0 0-1.693 3.1 7.157 7.157 0 0 0-.084.328 7.838 7.838 0 0 0-.087.404c-.026.138-.045.278-.064.417a7.774 7.774 0 0 0-.039.342 7.955 7.955 0 0 0-.025.49c-.002.066-.01.131-.01.198 0 .038.005.074.006.112.002.159.012.318.024.479.009.117.017.234.03.35.016.133.038.266.061.4.024.14.048.28.079.418.01.043.014.086.024.129.019.076.046.148.066.223.038.141.078.281.124.419.042.126.088.249.136.371a6.854 6.854 0 0 0 .342.76c.044.085.088.171.135.254.087.155.179.305.275.453l.121.182a7.861 7.861 0 0 0 .864 1.045c.037.038.074.076.113.113a7.864 7.864 0 0 0 1.201.97 8.424 8.424 0 0 0 .662.393c.178.094.36.181.545.262.049.021.098.043.148.063.197.082.397.154.601.22l.117.037c.223.068.448.126.677.174l.065.014a8.011 8.011 0 0 0 1.578.159h.027c.1 0 .198.004.298 0H416a8 8 0 0 0 0-16H107.065l315.84-76.46c4.273-1.037 8.589 1.6 9.623 5.872l17.089 70.59h-1.613a8 8 0 0 0 0 16H456c.805 0 1.601.042 2.386.119.31.058.625.096.943.117 11.663 1.626 20.671 11.66 20.671 23.764v.027a39.788 39.788 0 0 0-24-8.022H40c-13.234 0-24-10.767-24-24s10.767-24 24-24zm440 360c0 13.233-10.766 24-24 24H40c-13.234 0-24-10.767-24-24V150.325a39.788 39.788 0 0 0 24 8.022h416c13.233 0 24 10.767 24 24v72H363.002c-6.066 0-11.002 4.936-11.002 11.002v105.996c0 6.066 4.936 11.002 11.002 11.002H480v72zm16-88H368v-96h119.884c.039 0 .077.006.116.006s.077-.005.116-.006H496v96z"/><path d="M432 310.347a8 8 0 0 0-8 8c0 4.411-3.589 8-8 8s-8-3.589-8-8 3.589-8 8-8a8 8 0 0 0 0-16c-13.234 0-24 10.767-24 24s10.766 24 24 24 24-10.767 24-24a8 8 0 0 0-8-8z"/></symbol><symbol viewBox="0 0 512 512" id="icon-shop"><path d="M456.313 85.333h-55.527C386.809 36.16 341.594 0 288 0s-98.809 36.16-112.785 85.333h-69.441l-3.482-11.938c-5.271-18.094-22.115-30.729-40.958-30.729H32a10.66 10.66 0 0 0-10.667 10.667A10.66 10.66 0 0 0 32 64h29.333c9.427 0 17.844 6.313 20.479 15.365L148.208 307l-34.021 42.521a34.48 34.48 0 0 0-7.521 21.458c0 18.948 15.406 34.354 34.354 34.354h296.313c5.896 0 10.667-4.771 10.667-10.667S443.229 384 437.333 384H141.021c-7.177 0-13.021-5.844-13.021-13.021 0-2.948 1.01-5.844 2.854-8.135L165.133 320h209.221c16.448 0 31.604-9.615 38.615-24.5l74.438-158.177a34.636 34.636 0 0 0 3.26-14.615v-3.021c0-18.947-15.407-34.354-34.354-34.354zM288 21.333c52.938 0 96 43.063 96 96s-43.063 96-96 96-96-43.063-96-96 43.063-96 96-96zm181.333 101.375c0 1.906-.427 3.823-1.24 5.542l-74.427 158.167c-3.51 7.438-11.083 12.25-19.313 12.25H168l-56.004-192h59.211c-.319 3.518-.54 7.066-.54 10.667 0 64.698 52.635 117.333 117.333 117.333s117.333-52.635 117.333-117.333c0-3.6-.221-7.148-.54-10.667h51.52c7.177 0 13.021 5.844 13.021 13.021v3.02zm-320 303.959c-23.531 0-42.667 19.135-42.667 42.667S125.802 512 149.333 512 192 492.865 192 469.333s-19.135-42.666-42.667-42.666zm0 64c-11.76 0-21.333-9.573-21.333-21.333 0-11.76 9.573-21.333 21.333-21.333 11.76 0 21.333 9.573 21.333 21.333.001 11.76-9.572 21.333-21.333 21.333zm256-64c-23.531 0-42.667 19.135-42.667 42.667S381.802 512 405.333 512 448 492.865 448 469.333s-19.135-42.666-42.667-42.666zm0 64c-11.76 0-21.333-9.573-21.333-21.333 0-11.76 9.573-21.333 21.333-21.333 11.76 0 21.333 9.573 21.333 21.333.001 11.76-9.572 21.333-21.333 21.333z"/><path d="M280.458 188.875c2.083 2.083 4.813 3.125 7.542 3.125s5.458-1.042 7.542-3.125l42.667-42.667c4.167-4.167 4.167-10.917 0-15.083-4.167-4.167-10.917-4.167-15.083 0l-24.458 24.458V53.333c0-5.896-4.771-10.667-10.667-10.667s-10.667 4.771-10.667 10.667v102.25l-24.458-24.458c-4.167-4.167-10.917-4.167-15.083 0-4.167 4.167-4.167 10.917 0 15.083l42.665 42.667z"/></symbol><symbol viewBox="0 0 60 60" id="icon-testimony"><path d="M36.719 22h-25a1 1 0 0 0 0 2h25a1 1 0 0 0 0-2zm-25-6h10a1 1 0 0 0 0-2h-10a1 1 0 0 0 0 2zm25 14h-25a1 1 0 0 0 0 2h25a1 1 0 0 0 0-2zm-8 8h-17a1 1 0 0 0 0 2h17a1 1 0 0 0 0-2zm-3 10a1 1 0 0 0 0-2h-14a1 1 0 0 0 0 2h14z"/><path d="M2.719 2h29v14h14v18h2V14.586L33.133 0H.719v60h29v-2h-27V2zm31 1.414L44.305 14H33.719V3.414z"/><path d="M58.407 37.162l-2.849-2.85c-1.128-1.128-3.094-1.128-4.222 0l-15.391 15.39-2.121 7.779-.519.519a.998.998 0 0 0-.006 1.405l-.005.02.02-.005a.997.997 0 0 0 1.405-.006l.519-.519 7.779-2.121 15.39-15.391c.564-.564.875-1.313.875-2.111s-.311-1.547-.875-2.11zm-20.153 13.06l10.243-10.243 4.243 4.243-10.243 10.243-4.243-4.243zm-.903 1.925l3.22 3.22-4.427 1.207 1.207-4.427zm19.642-12.178l-2.839 2.839-4.243-4.243 2.839-2.839a1.008 1.008 0 0 1 1.393 0l2.85 2.85a.985.985 0 0 1 0 1.393z"/></symbol><symbol viewBox="0 0 409.165 409.164" id="icon-user"><path d="M204.583 216.671c50.664 0 91.74-48.075 91.74-107.378 0-82.237-41.074-107.377-91.74-107.377-50.668 0-91.74 25.14-91.74 107.377.001 59.303 41.073 107.378 91.74 107.378zm202.581 158.046L360.88 270.454a23.23 23.23 0 0 0-10.465-11.138l-71.83-37.392a4.628 4.628 0 0 0-4.926.415c-20.316 15.366-44.203 23.488-69.076 23.488-24.877 0-48.762-8.122-69.078-23.488a4.635 4.635 0 0 0-4.93-.415L58.75 259.316a23.222 23.222 0 0 0-10.465 11.138L2.001 374.717a23.059 23.059 0 0 0 1.75 22.005 23.056 23.056 0 0 0 19.4 10.526h362.861a23.063 23.063 0 0 0 19.402-10.527 23.063 23.063 0 0 0 1.75-22.004z"/></symbol><symbol viewBox="0 0 97.395 97.395" id="inst"><path d="M12.501 0h72.393c6.875 0 12.5 5.09 12.5 12.5v72.395c0 7.41-5.625 12.5-12.5 12.5H12.501C5.624 97.395 0 92.305 0 84.895V12.5C0 5.09 5.624 0 12.501 0zm58.447 10.821a4.395 4.395 0 0 0-4.383 4.385v10.495a4.396 4.396 0 0 0 4.383 4.385h11.008a4.398 4.398 0 0 0 4.385-4.385V15.206a4.397 4.397 0 0 0-4.385-4.385H70.948zm15.439 30.367h-8.572a28.486 28.486 0 0 1 1.25 8.355c0 16.2-13.556 29.332-30.275 29.332-16.718 0-30.272-13.132-30.272-29.332 0-2.904.438-5.708 1.25-8.355h-8.945v41.141a3.884 3.884 0 0 0 3.872 3.872h67.822a3.883 3.883 0 0 0 3.872-3.872V41.188h-.002zM48.789 29.533c-10.802 0-19.56 8.485-19.56 18.953s8.758 18.953 19.56 18.953c10.803 0 19.562-8.485 19.562-18.953s-8.758-18.953-19.562-18.953z"/></symbol><symbol viewBox="0 0 410.3 87.9" id="logotip"><path fill-rule="evenodd" clip-rule="evenodd" fill="#F28C00" d="M12.7 13.6C4.2 22.1 0 33.3 0 44.4c0 11.1 4.2 22.3 12.7 30.8C25.9 88.4 45.5 91.3 61.5 84l-5.7-10.4L82 82.9 12.7 13.6z"/><path fill-rule="evenodd" clip-rule="evenodd" fill="#00447E" d="M74.3 75.2c17-17 17-44.6 0-61.6C61.1.4 41.5-2.5 25.5 4.8l5.7 10.4L5 5.9l69.3 69.3zm336-25.2h-24.2l-1.3 6.2h8.5l-4.8 22.2h7.5l4.8-22.2h8.2l1.3-6.2zm-35.1 0l-6 28.4h7.4l6-28.4h-7.4zm-14 18.4c0 3.1-2.2 4-5.1 4h-4l1.5-7.1h3.1c2.3.1 4.5.4 4.5 3.1zm7.3-.5c0-6.2-4.1-8.4-9.8-8.4h-3.8l2-9.5h-7.4l-6 28.4h12.1c2.8 0 6-.2 8.4-1.8 2.7-1.7 4.5-5.1 4.5-8.7zm-34.5.5c0 3.1-2.2 4-5.1 4h-6l1.5-7.1h5.1c2.4.1 4.5.4 4.5 3.1zm8.4-18.4h-22.1l-6 28.4h14.2c2.8 0 6-.2 8.4-1.8 2.8-1.8 4.5-5.2 4.5-8.8 0-6.2-4.1-8.4-9.8-8.4h-5.9l.7-3.5h14.7l1.3-5.9zm-30 17.9H305c-.8 3.4-2.9 5.2-5.9 5.2-3.4 0-5.4-2.5-5.4-6.8 0-4.6 2.2-11 7.8-11 3.3 0 4.7 1.7 4.8 4.8h7.2v-.6c0-6.2-4.6-10.2-11.7-10.2-9.7 0-15.5 7.6-15.5 17.1 0 8 4.6 12.7 12.3 12.7 7.2 0 12.3-4 13.8-11.2zm-42.3-12.6c3.9 0 5.4 2.8 5.4 6.4 0 4.5-2.4 11.4-7.9 11.4-3.6 0-5.7-2.4-5.7-6.5 0-4.8 2.4-11.3 8.2-11.3zm12.9 6.2c0-7.8-5.1-12.1-12.6-12.1-9.9 0-15.9 7.5-15.9 17.1 0 8.1 4.7 12.7 12.6 12.7 10.1 0 15.9-8.1 15.9-17.7zm-55 16.9h7.5l4.7-22.2h13.5L255 50h-21l-6 28.4zM212.4 56h4.2c2.3 0 4.4.3 4.4 3.1 0 3.1-2.2 4-5.1 4h-5l1.5-7.1zm-6.1-6l-6 28.4h7.4l2-9.5h5.6c2.8 0 6-.2 8.4-1.8 2.8-1.8 4.5-5.2 4.5-8.8 0-6.2-4.1-8.4-9.8-8.4h-12.1zm-5.2 0h-22.6l-6 28.4h22.9l1.3-6.2h-15.5l1.2-5.6h14.1l1.2-5.8h-14.1l1-4.9h15.2l1.3-5.9zm-28.4 0h-7.5L163 60.3h-9.9l2.2-10.3h-7.5l-6 28.4h7.5l2.5-11.7h9.9l-2.5 11.7h7.5l6-28.4zm-31.9 12c0-8-4.6-12.7-12.3-12.7-6.9 0-11.8 3.6-13.6 10h7.5c1-2.6 2.9-4 5.6-4 3.1 0 5 2 5.4 5.5h-9.1l-1.2 5.8h9.7c-1 3.4-3.2 6.5-7.1 6.5-3.3 0-4.7-1.7-4.8-4.8h-7.2v.6c0 6.2 4.6 10.2 11.7 10.2 9.6 0 15.4-7.6 15.4-17.1z"/><path fill-rule="evenodd" clip-rule="evenodd" fill="#FFF" d="M71.1 46.7h-5c-.6 2.3-1.9 3.5-3.9 3.5-2.3 0-3.6-1.7-3.6-4.5 0-3.1 1.5-7.3 5.2-7.3 2.2 0 3.1 1.1 3.2 3.2h4.8v-.4c0-4.2-3.1-6.8-7.8-6.8-6.5 0-10.3 5.1-10.3 11.4 0 5.4 3 8.4 8.2 8.4 4.9 0 8.3-2.7 9.2-7.5m-18-3.9c0-5.4-3-8.4-8.2-8.4-4.6 0-7.9 2.4-9 6.7h5c.7-1.8 1.9-2.7 3.7-2.7 2.1 0 3.4 1.3 3.6 3.7h-6l-.8 3.8h6.4c-.7 2.3-2.2 4.3-4.7 4.3-2.2 0-3.1-1.1-3.2-3.2H35v.4c0 4.2 3.1 6.8 7.8 6.8 6.5 0 10.3-5.1 10.3-11.4zm-27-4.5c2.6 0 3.6 1.9 3.6 4.3 0 3-1.6 7.6-5.3 7.6-2.4 0-3.8-1.6-3.8-4.3 0-3.3 1.6-7.6 5.5-7.6zm8.6 4.1c0-5.2-3.4-8.1-8.4-8.1-6.6 0-10.6 5-10.6 11.4 0 5.4 3.1 8.5 8.4 8.5 6.7 0 10.6-5.4 10.6-11.8z"/><path fill-rule="evenodd" clip-rule="evenodd" fill="#00447E" d="M354.1 7.4h-8.5l-13.1 18.9 4.3-18.9h-7.2l-6 28.4h8.7l13.1-18.9-4.6 18.9h7.2l6.1-28.4zm-29.1 0h-9.8l-11.8 11.1 2.5-11.1h-7.4l-6 28.4h7.4l1.8-8.7 3.8-3.2 5.9 11.9h8.4l-8.5-16.7L325 7.4zm-34.6 17.9H283c-.8 3.4-2.9 5.2-5.9 5.2-3.4 0-5.4-2.5-5.4-6.8 0-4.6 2.2-11 7.8-11 3.3 0 4.7 1.7 4.8 4.8h7.2V17c0-6.2-4.6-10.2-11.7-10.2-9.7 0-15.5 7.6-15.5 17.1 0 8 4.6 12.7 12.3 12.7 7.3-.1 12.4-4.1 13.8-11.3zm-47.1-1.8h4.6c2.2 0 5.2-.1 5.2 2.9 0 3.4-3.2 3.7-5.8 3.7h-5.4l1.4-6.6zm2.2-10.4h4.5c1.7 0 4.2-.1 4.2 2.3 0 2.5-2 3.2-4.3 3.2h-5.5l1.1-5.5zm-6-5.7l-6.1 28.4h14c3.6 0 7.2 0 10-2.6 1.8-1.7 2.9-4.2 2.9-6.8 0-2.9-1.4-4.9-4-5.8 3.2-.6 5.3-3.2 5.3-6.6 0-5.8-5.1-6.6-9.7-6.6h-12.4zm-20.2 5.4c3.9 0 5.4 2.8 5.4 6.4 0 4.5-2.4 11.4-7.9 11.4-3.6 0-5.7-2.4-5.7-6.5.1-4.9 2.5-11.3 8.2-11.3zm13 6.1c0-7.8-5.1-12.1-12.6-12.1-9.9 0-15.9 7.5-15.9 17.1 0 8.1 4.7 12.7 12.6 12.7 10.1 0 15.9-8.1 15.9-17.7zM202.7 7.4h-20.9l-4 16.3c-1.4 5.6-2.7 6.7-4.6 6.7-.5 0-1.7-.2-2.1-.3l-1.2 5.8c.8.3 2.7.5 3.8.5 6.2 0 9.2-3.6 11.2-11.6l2.7-11.2h6.3l-4.7 22.2h7.5l6-28.4zm-45.2 6h4.2c2.3 0 4.4.3 4.4 3.1 0 3.1-2.2 4-5.1 4h-5l1.5-7.1zm-6.1-6l-6 28.4h7.4l2-9.5h5.6c2.8 0 6-.2 8.4-1.8 2.8-1.8 4.5-5.2 4.5-8.8 0-6.2-4.1-8.4-9.8-8.4h-12.1zm-20 5.4c3.9 0 5.4 2.8 5.4 6.4 0 4.5-2.4 11.4-7.9 11.4-3.6 0-5.7-2.4-5.7-6.5 0-4.9 2.4-11.3 8.2-11.3zm13 6.1c0-7.8-5.1-12.1-12.6-12.1-9.9 0-15.9 7.5-15.9 17.1 0 8.1 4.7 12.7 12.6 12.7 10 0 15.9-8.1 15.9-17.7zM381.1 0h-3.4c-.4 1.6-2.5 2.3-4.4 2.3-1.9 0-3.4-.8-3.4-2.3h-3.4c-.1.5-.1 1-.1 1.4 0 3.3 3.4 4.6 6.7 4.6 3.7 0 7.3-1.6 8-6zm4.3 7.4h-8.5l-13.1 18.9 4.3-18.9h-7.2l-6 28.4h8.7l13.1-18.9-4.6 18.9h7.2l6.1-28.4z"/></symbol><symbol viewBox="0 0 325.5 69" id="logotip-white"><path fill-rule="evenodd" clip-rule="evenodd" fill="#6985af" d="M280.9 5.2h-6.8l-10.4 15 3.4-15h-5.7l-4.8 22.6h6.9l10.4-15-3.6 15h5.7l4.9-22.6zm-23.1 0H250l-9.3 8.8 2-8.8h-5.9L232 27.7h5.9l1.5-6.9 3-2.6 4.7 9.4h6.7L247 14.4l10.8-9.2zm-27.4 14.2h-5.9c-.7 2.7-2.3 4.2-4.7 4.2-2.7 0-4.3-2-4.3-5.4 0-3.7 1.8-8.7 6.1-8.7 2.6 0 3.7 1.3 3.8 3.8h5.7v-.5c0-4.9-3.6-8.1-9.3-8.1-7.7 0-12.3 6-12.3 13.6 0 6.4 3.6 10 9.8 10 5.9-.1 9.9-3.3 11.1-8.9zM193 17.9h3.6c1.8 0 4.1-.1 4.1 2.3 0 2.7-2.5 2.9-4.6 2.9h-4.3l1.2-5.2zm1.7-8.2h3.5c1.3 0 3.3-.1 3.3 1.8 0 2-1.6 2.6-3.4 2.6h-4.4l1-4.4zM190 5.2l-4.8 22.6h11.1c2.9 0 5.7 0 8-2.1 1.4-1.3 2.3-3.4 2.3-5.4 0-2.3-1.1-3.9-3.2-4.6 2.5-.5 4.2-2.6 4.2-5.3 0-4.6-4.1-5.2-7.7-5.2H190zm-16 4.2c3.1 0 4.3 2.3 4.3 5.1 0 3.6-1.9 9.1-6.3 9.1-2.8 0-4.5-1.9-4.5-5.1 0-4 1.9-9.1 6.5-9.1zm10.3 4.9c0-6.2-4.1-9.6-10-9.6-7.8 0-12.6 6-12.6 13.5 0 6.4 3.7 10.1 10 10.1 8 0 12.6-6.4 12.6-14zm-23.5-9.1h-16.6l-3.1 13c-1.1 4.5-2.2 5.3-3.7 5.3-.4 0-1.4-.1-1.7-.3l-1 4.6c.6.2 2.1.4 3 .4 4.9 0 7.3-2.8 8.9-9.2l2.2-8.9h5L150 27.7h5.9l4.9-22.5zm-35.9 4.7h3.3c1.8 0 3.5.3 3.5 2.4 0 2.4-1.7 3.2-4 3.2h-4l1.2-5.6zm-4.8-4.7l-4.8 22.6h5.9l1.6-7.5h4.4c2.2 0 4.8-.2 6.7-1.4 2.2-1.4 3.6-4.1 3.6-7 0-4.9-3.2-6.7-7.8-6.7h-9.6zm-15.9 4.2c3.1 0 4.3 2.3 4.3 5.1 0 3.6-1.9 9.1-6.3 9.1-2.8 0-4.5-1.9-4.5-5.1.1-4 1.9-9.1 6.5-9.1zm10.3 4.9c0-6.2-4.1-9.6-10-9.6-7.8 0-12.6 6-12.6 13.5 0 6.4 3.7 10.1 10 10.1 8 0 12.6-6.4 12.6-14zm187.8-15h-2.7c-.3 1.3-2 1.8-3.5 1.8s-2.7-.6-2.7-1.8h-2.7c-.1.4-.1.8-.1 1.1 0 2.6 2.7 3.7 5.3 3.7 3 0 5.9-1.3 6.4-4.8zm3.4 5.9H299l-10.4 15 3.4-15h-5.7l-4.8 22.5h6.9l10.4-15-3.6 15h5.7l4.8-22.5zM56.4 36.3h-3.9c-.4 1.8-1.5 2.8-3.1 2.8-1.8 0-2.9-1.3-2.9-3.6 0-2.5 1.2-5.8 4.1-5.8 1.7 0 2.5.9 2.5 2.6h3.8V32c0-3.3-2.4-5.4-6.2-5.4-5.1 0-8.2 4-8.2 9 0 4.2 2.4 6.7 6.5 6.7 4-.1 6.7-2.2 7.4-6zm-35.7-6.6c2.1 0 2.9 1.5 2.9 3.4 0 2.4-1.3 6-4.2 6-1.9 0-3-1.3-3-3.4 0-2.6 1.2-6 4.3-6zm6.8 3.2c0-4.1-2.7-6.4-6.7-6.4-5.2 0-8.4 4-8.4 9 0 4.3 2.5 6.7 6.7 6.7 5.4 0 8.4-4.2 8.4-9.3zm298 6h-19.2l-1 4.9h6.7l-3.8 17.6h5.9l3.8-17.6h6.5l1.1-4.9zm-27.9 0l-4.8 22.6h5.9l4.8-22.6h-5.9zm-11.1 14.7c0 2.4-1.7 3.2-4 3.2h-3.1l1.2-5.6h2.4c1.8-.1 3.5.2 3.5 2.4zm5.8-.5c0-4.9-3.2-6.7-7.8-6.7h-3l1.6-7.5h-5.9l-4.8 22.6h9.6c2.2 0 4.8-.2 6.7-1.4 2.2-1.4 3.6-4.1 3.6-7zm-27.3.5c0 2.4-1.7 3.2-4 3.2h-4.8l1.2-5.6h4.1c1.8-.1 3.5.2 3.5 2.4zm6.6-14.7h-17.5l-4.8 22.6h11.2c2.2 0 4.8-.2 6.7-1.4 2.2-1.4 3.6-4.1 3.6-7 0-4.9-3.2-6.7-7.8-6.7h-4.7l.6-2.8h11.7l1-4.7zm-23.8 14.3h-5.9c-.7 2.7-2.3 4.2-4.7 4.2-2.7 0-4.3-2-4.3-5.4 0-3.7 1.8-8.7 6.1-8.7 2.6 0 3.7 1.3 3.8 3.8h5.7v-.5c0-4.9-3.6-8.1-9.3-8.1-7.7 0-12.3 6.1-12.3 13.6 0 6.4 3.6 10 9.8 10 5.9-.1 10-3.3 11.1-8.9zm-33.6-10c3.1 0 4.3 2.3 4.3 5.1 0 3.6-1.9 9.1-6.3 9.1-2.9 0-4.5-1.9-4.5-5.1.1-4 1.9-9.1 6.5-9.1zm10.3 4.9c0-6.2-4.1-9.6-10-9.6-7.8 0-12.6 6-12.6 13.5 0 6.4 3.7 10.1 10 10.1 8 0 12.6-6.4 12.6-14zm-43.6 13.4h5.9l3.7-17.6h10.7l1-4.9h-16.7l-4.6 22.5zm-12.4-17.8h3.3c1.8 0 3.5.3 3.5 2.4 0 2.4-1.7 3.2-4 3.2h-4l1.2-5.6zm-4.9-4.8l-4.8 22.6h5.9l1.6-7.5h4.4c2.2 0 4.8-.2 6.7-1.4 2.2-1.4 3.6-4.1 3.6-7 0-4.9-3.2-6.7-7.8-6.7h-9.6zm-4.1 0h-17.9l-4.8 22.6H155l1-4.9h-12.3l.9-4.4h11.2l1-4.6h-11.2l.8-3.9h12.1l1-4.8zm-22.5 0h-5.9l-1.7 8.2h-7.9l1.7-8.2h-5.9l-4.8 22.6h5.9l2-9.3h7.8l-2 9.3h5.9l4.9-22.6zm-25.3 9.6c0-6.4-3.6-10-9.8-10-5.5 0-9.4 2.9-10.8 7.9h6c.8-2.1 2.3-3.2 4.4-3.2 2.4 0 4 1.6 4.3 4.4h-7.2l-1 4.6h7.7c-.8 2.7-2.6 5.1-5.6 5.1-2.6 0-3.7-1.3-3.8-3.8h-5.7v.5c0 4.9 3.6 8.1 9.3 8.1 7.6-.1 12.2-6.1 12.2-13.6zM59.8 58c12.5-13.5 12.2-34.7-.9-47.9-10.5-10.5-26-12.8-38.7-7l4.5 8.3L4 4l25.7 25.2c1.3-1.7 3.4-2.7 5.9-2.7 4.1 0 6.5 2.5 6.5 6.7 0 2.2-.6 4.2-1.7 5.8l19.4 19zM9.2 11C3.1 17.6 0 26.1 0 34.5c0 8.8 3.4 17.7 10.1 24.4 10.5 10.5 26 12.8 38.7 7l-4.5-8.3L65 65 39.5 40c-1.4 1.4-3.3 2.2-5.6 2.2-3.8 0-6.2-2.1-6.2-5.4v-.3h3.8c0 1.7.8 2.6 2.5 2.6 2 0 3.2-1.6 3.7-3.4h-5.1l.7-3h4.8c-.2-1.9-1.2-2.9-2.9-2.9-1.4 0-2.4.7-2.9 2.1h-4c.1-.5.3-.9.5-1.4L9.2 11z"/></symbol><symbol viewBox="0 0 54 54" id="map-location"><path d="M26.7 0C16 .4 7.1 8.8 6.1 19.4c-.2 2.1-.1 4.2.3 6.2 0 0 0 .2.1.7.3 1.5.8 2.9 1.5 4.3 2.2 5.1 7.2 13.7 18.4 23 .7.6 1.7.6 2.4 0C40 44.3 45 35.7 47.2 30.6c.6-1.4 1.1-2.8 1.5-4.3.1-.4.1-.7.1-.7.3-1.3.4-2.7.4-4.1C49 9.4 39-.4 26.7 0zm.8 32.3c-5.8 0-10.5-4.7-10.5-10.5s4.7-10.5 10.5-10.5S38 16 38 21.8s-4.7 10.5-10.5 10.5z"/></symbol><symbol viewBox="0 0 41.756 41.756" id="modal-close"><path d="M27.948 20.878L40.291 8.536a5 5 0 1 0-7.07-7.071L20.878 13.809 8.535 1.465a5 5 0 0 0-7.07 7.071l12.342 12.342L1.465 33.22a5 5 0 1 0 7.07 7.071l12.343-12.342 12.343 12.343c.976.977 2.256 1.464 3.535 1.464s2.56-.487 3.535-1.464a5 5 0 0 0 0-7.071L27.948 20.878z"/></symbol><symbol viewBox="0 0 68.1 68.1" id="mouse"><path d="M34.5 67.9h-1c-10.1 0-18.3-8.2-18.3-18.3v-31C15.2 8.5 23.4.3 33.5.3h1c10.1 0 18.3 8.2 18.3 18.3v31c.1 10.1-8.2 18.3-18.3 18.3zm-.9-65.6c-9 0-16.3 7.3-16.3 16.3v31c0 9 7.3 16.3 16.3 16.3h1c9 0 16.3-7.3 16.3-16.3v-31c0-9-7.3-16.3-16.3-16.3h-1z"/><path d="M34.1 25.4c-1.2 0-2.3-1-2.3-2.2v-6.5c0-1.2 1-2.2 2.2-2.2 1.2 0 2.2 1 2.2 2.2v6.5c.1 1.2-.9 2.2-2.1 2.2z"/></symbol><symbol viewBox="0 0 95.481 95.481" id="ok"><path d="M43.041 67.254c-7.402-.772-14.076-2.595-19.79-7.064-.709-.556-1.441-1.092-2.088-1.713-2.501-2.402-2.753-5.153-.774-7.988 1.693-2.426 4.535-3.075 7.489-1.682.572.27 1.117.607 1.639.969 10.649 7.317 25.278 7.519 35.967.329 1.059-.812 2.191-1.474 3.503-1.812 2.551-.655 4.93.282 6.299 2.514 1.564 2.549 1.544 5.037-.383 7.016-2.956 3.034-6.511 5.229-10.461 6.761-3.735 1.448-7.826 2.177-11.875 2.661.611.665.899.992 1.281 1.376 5.498 5.524 11.02 11.025 16.5 16.566 1.867 1.888 2.257 4.229 1.229 6.425-1.124 2.4-3.64 3.979-6.107 3.81-1.563-.108-2.782-.886-3.865-1.977-4.149-4.175-8.376-8.273-12.441-12.527-1.183-1.237-1.752-1.003-2.796.071-4.174 4.297-8.416 8.528-12.683 12.735-1.916 1.889-4.196 2.229-6.418 1.15-2.362-1.145-3.865-3.556-3.749-5.979.08-1.639.886-2.891 2.011-4.014 5.441-5.433 10.867-10.88 16.295-16.322.359-.362.694-.746 1.217-1.305z"/><path d="M47.55 48.329c-13.205-.045-24.033-10.992-23.956-24.218C23.67 10.739 34.505-.037 47.84 0c13.362.036 24.087 10.967 24.02 24.478-.068 13.199-10.971 23.897-24.31 23.851zm12.001-24.186c-.023-6.567-5.253-11.795-11.807-11.801-6.609-.007-11.886 5.316-11.835 11.943.049 6.542 5.324 11.733 11.896 11.709 6.552-.023 11.768-5.285 11.746-11.851z"/></symbol><symbol viewBox="51 -52.2 477.2 477.2" id="owl-next"><path d="M167.6 401.9c-5.3 5.3-5.3 13.8 0 19.1 2.6 2.7 6.1 4 9.5 4s6.9-1.4 9.5-4l225.1-225c5.3-5.3 5.3-13.8 0-19.1L186.6-48.2c-5.3-5.3-13.8-5.3-19.1 0s-5.3 13.8 0 19.1L383 186.4 167.6 401.9z"/></symbol><symbol viewBox="0 0 477.175 477.175" id="owl-prev"><path d="M145.188 238.575l215.5-215.5c5.3-5.3 5.3-13.8 0-19.1s-13.8-5.3-19.1 0l-225.1 225.1c-5.3 5.3-5.3 13.8 0 19.1l225.1 225c2.6 2.6 6.1 4 9.5 4s6.9-1.3 9.5-4c5.3-5.3 5.3-13.8 0-19.1l-215.4-215.5z"/></symbol><symbol viewBox="0 0 56.966 56.966" id="search"><path d="M55.146 51.887L41.588 37.786A22.926 22.926 0 0 0 46.984 23c0-12.682-10.318-23-23-23s-23 10.318-23 23 10.318 23 23 23c4.761 0 9.298-1.436 13.177-4.162l13.661 14.208c.571.593 1.339.92 2.162.92.779 0 1.518-.297 2.079-.837a3.004 3.004 0 0 0 .083-4.242zM23.984 6c9.374 0 17 7.626 17 17s-7.626 17-17 17-17-7.626-17-17 7.626-17 17-17z"/></symbol><symbol viewBox="0 0 480.56 480.56" id="tel"><path d="M365.354 317.9c-15.7-15.5-35.3-15.5-50.9 0-11.9 11.8-23.8 23.6-35.5 35.6-3.2 3.3-5.9 4-9.8 1.8-7.7-4.2-15.9-7.6-23.3-12.2-34.5-21.7-63.4-49.6-89-81-12.7-15.6-24-32.3-31.9-51.1-1.6-3.8-1.3-6.3 1.8-9.4 11.9-11.5 23.5-23.3 35.2-35.1 16.3-16.4 16.3-35.6-.1-52.1-9.3-9.4-18.6-18.6-27.9-28-9.6-9.6-19.1-19.3-28.8-28.8-15.7-15.3-35.3-15.3-50.9.1-12 11.8-23.5 23.9-35.7 35.5-11.3 10.7-17 23.8-18.2 39.1-1.9 24.9 4.2 48.4 12.8 71.3 17.6 47.4 44.4 89.5 76.9 128.1 43.9 52.2 96.3 93.5 157.6 123.3 27.6 13.4 56.2 23.7 87.3 25.4 21.4 1.2 40-4.2 54.9-20.9 10.2-11.4 21.7-21.8 32.5-32.7 16-16.2 16.1-35.8.2-51.8-19-19.1-38.1-38.1-57.2-57.1zm-19.1-79.7l36.9-6.3c-5.8-33.9-21.8-64.6-46.1-89-25.7-25.7-58.2-41.9-94-46.9l-5.2 37.1c27.7 3.9 52.9 16.4 72.8 36.3 18.8 18.8 31.1 42.6 35.6 68.8zm57.7-160.4c-42.6-42.6-96.5-69.5-156-77.8l-5.2 37.1c51.4 7.2 98 30.5 134.8 67.2 34.9 34.9 57.8 79 66.1 127.5l36.9-6.3c-9.7-56.2-36.2-107.2-76.6-147.7z"/></symbol><symbol viewBox="0 0 612 612" id="tw"><path d="M612 116.258a250.714 250.714 0 0 1-72.088 19.772c25.929-15.527 45.777-40.155 55.184-69.411-24.322 14.379-51.169 24.82-79.775 30.48-22.907-24.437-55.49-39.658-91.63-39.658-69.334 0-125.551 56.217-125.551 125.513 0 9.828 1.109 19.427 3.251 28.606-104.326-5.24-196.835-55.223-258.75-131.174-10.823 18.51-16.98 40.078-16.98 63.101 0 43.559 22.181 81.993 55.835 104.479a125.556 125.556 0 0 1-56.867-15.756v1.568c0 60.806 43.291 111.554 100.693 123.104-10.517 2.83-21.607 4.398-33.08 4.398-8.107 0-15.947-.803-23.634-2.333 15.985 49.907 62.336 86.199 117.253 87.194-42.947 33.654-97.099 53.655-155.916 53.655-10.134 0-20.116-.612-29.944-1.721 55.567 35.681 121.536 56.485 192.438 56.485 230.948 0 357.188-191.291 357.188-357.188l-.421-16.253c24.666-17.593 46.005-39.697 62.794-64.861z"/></symbol><symbol viewBox="0 0 304.36 304.36" id="vk"><path d="M261.945 175.576c10.096 9.857 20.752 19.131 29.807 29.982 4 4.822 7.787 9.798 10.684 15.394 4.105 7.955.387 16.709-6.746 17.184l-44.34-.02c-11.436.949-20.559-3.655-28.23-11.474-6.139-6.253-11.824-12.908-17.727-19.372-2.42-2.642-4.953-5.128-7.979-7.093-6.053-3.929-11.307-2.726-14.766 3.587-3.523 6.421-4.322 13.531-4.668 20.687-.475 10.441-3.631 13.186-14.119 13.664-22.414 1.057-43.686-2.334-63.447-13.641-17.422-9.968-30.932-24.04-42.691-39.971-22.895-31.021-40.428-65.108-56.186-100.15C-2.01 76.458.584 72.22 9.295 72.07c14.465-.281 28.928-.261 43.41-.02 5.879.086 9.771 3.458 12.041 9.012 7.826 19.243 17.402 37.551 29.422 54.521 3.201 4.518 6.465 9.036 11.113 12.216 5.142 3.521 9.057 2.354 11.476-3.374 1.535-3.632 2.207-7.544 2.553-11.434 1.146-13.383 1.297-26.743-.713-40.079-1.234-8.323-5.922-13.711-14.227-15.286-4.238-.803-3.607-2.38-1.555-4.799 3.564-4.172 6.916-6.769 13.598-6.769h50.111c7.889 1.557 9.641 5.101 10.721 13.039l.043 55.663c-.086 3.073 1.535 12.192 7.07 14.226 4.43 1.448 7.35-2.096 10.008-4.905 11.998-12.734 20.561-27.783 28.211-43.366 3.395-6.852 6.314-13.968 9.143-21.078 2.096-5.276 5.385-7.872 11.328-7.757l48.229.043c1.43 0 2.877.021 4.262.258 8.127 1.385 10.354 4.881 7.844 12.817-3.955 12.451-11.65 22.827-19.174 33.251-8.043 11.129-16.645 21.877-24.621 33.072-7.328 10.223-6.746 15.376 2.357 24.255zm0 0" fill-rule="evenodd" clip-rule="evenodd"/></symbol></svg>