<svg version="1" xmlns="http://www.w3.org/2000/svg" width="349.333" height="349.333" viewBox="0 0 262.000000 262.000000"><path d="M107.6 2.6c-8.2 1.5-28.4 7.8-30 9.4-.8.8 3.4 9.3 12.7 25.8l2.9 5.2-2.8-1.1C81.1 38.4 17.6 16 16.6 16c-.6 0 4.1 5.1 10.3 11.4l11.4 11.5-4.8 5.3C18 61.5 6.6 85 2.5 108.4c-2 11.5-2 33.7 0 45.2 1.9 10.5 7.1 26.7 11.6 35.6 18.2 36.6 54.1 63.3 94.3 70.3 11.6 2 33.9 2 44.7-.1 16.3-3 32.4-8.7 31.5-11-.3-.8-3.9-7.5-8.1-15-4.1-7.5-7.4-13.8-7.3-13.9.2-.2 17.2 5.7 37.8 13.1 20.6 7.4 37.9 13.4 38.5 13.4.5 0-4.2-5.1-10.4-11.4l-11.4-11.4 5.2-5.9c21-23.4 32.3-53.5 32.3-86.3 0-22.8-4.3-40.6-14.4-60.1-18.3-35.3-51.9-60.4-91-68-12-2.3-36.2-2.5-48.2-.3zM92.5 103.7c8.4 4.4 11.5 10.3 11.5 22.2 0 13.9-5.6 24.6-16 30.5-5.1 2.9-6.2 3.1-15 3.1-7.4 0-10.3-.4-12.9-1.9-10.4-5.6-14.4-18.2-10.6-33.1 2.8-10.6 10.3-19 19.8-22.1 6-2 18.2-1.3 23.2 1.3zm48.6-1.7c7.8 1.5 12.6 5.1 15.6 11.7 2.3 4.9 2.5 6.5 2.1 14.7-.3 7.5-.9 10.3-3.1 14.8-5.3 10.9-15 16.8-27.3 16.8-12.6 0-22.4-7.8-22.4-18v-3h6.9c6.9 0 6.9 0 7.6 3 1.4 6.2 10.4 8.4 16.4 4.1 2.6-1.9 7.1-8.6 7.1-10.6 0-.3-4.3-.5-9.6-.5h-9.6l.6-2.6c.4-1.5 1-3.9 1.3-5.5l.6-2.9h8.8c9.8 0 10.3-.4 7.5-5.9-1.7-3.3-5.4-5.1-10.3-5.1-2.9 0-4.3.8-7.4 4-3.7 3.9-4 4-10.4 4-7 0-7.3-.3-5.1-5.3 2.8-6.6 10.1-12.1 17.9-13.7 5.9-1.1 6.8-1.1 12.8 0zm57 0c9.8 1.9 16.8 9 16.9 17.2 0 2.8 0 2.8-7 2.8-6.4 0-7-.2-7-2 0-3.8-4.4-7-9.5-7-3.7 0-5.1.6-8.4 3.5-6.5 5.9-9.1 17.9-5.6 26.1 3.4 8.1 14.8 7.9 19.3-.4l2.3-4.2h14.1l-.7 2.7c-1.1 4.6-5.3 11.1-9 13.9-10 7.6-26.8 7.2-35-1.1-5.3-5.2-6.9-10.8-6.3-21.4.9-15.8 9.8-27.4 23.1-30.1 5.9-1.1 6.8-1.1 12.8 0z"/><path d="M71.9 114.7c-6 3.7-10.8 15.9-9.3 23.7 1.3 7 7.2 11.1 13.9 9.8 4.9-.9 10-7.1 12-14.5 3.4-12.5-.4-20.7-9.4-20.7-2.5 0-5.8.8-7.2 1.7z"/></svg>